<svg width="45" height="45" viewBox="0 0 45 45" fill="none" xmlns="http://www.w3.org/2000/svg">
<rect x="1.94983" y="1.30499" width="42" height="42" rx="21" stroke="#1C1C23" stroke-opacity="0.3" stroke-width="2"/>
<path d="M14.8446 23.3944H27.4167L21.9241 28.7376C21.4852 29.1647 21.4852 29.8654 21.9241 30.2924C22.3631 30.7194 23.0721 30.7194 23.5111 30.2924L30.9283 23.0769C31.3672 22.6499 31.3672 21.9601 30.9283 21.5331L23.5111 14.3176C23.0721 13.8905 22.3631 13.8905 21.9241 14.3176C21.4852 14.7446 21.4852 15.4344 21.9241 15.8614L27.4167 21.2046H14.8446C14.2255 21.2046 13.719 21.6973 13.719 22.2995C13.719 22.9017 14.2255 23.3944 14.8446 23.3944Z" fill="#1C1C23" fill-opacity="0.3"/>
</svg>
