<svg width="45" height="45" viewBox="0 0 45 45" fill="none" xmlns="http://www.w3.org/2000/svg">
<rect x="1.0498" y="1.30499" width="42" height="42" rx="21" stroke="#1C1C23" stroke-opacity="0.3" stroke-width="2"/>
<path d="M30.1551 21.2156H17.583L23.0755 15.8724C23.5145 15.4453 23.5145 14.7446 23.0755 14.3176C22.6366 13.8906 21.9275 13.8906 21.4885 14.3176L14.0713 21.5331C13.6324 21.9601 13.6324 22.6499 14.0713 23.0769L21.4885 30.2924C21.9275 30.7195 22.6366 30.7195 23.0755 30.2924C23.5145 29.8654 23.5145 29.1756 23.0755 28.7486L17.583 23.4054H30.1551C30.7741 23.4054 31.2806 22.9127 31.2806 22.3105C31.2806 21.7083 30.7741 21.2156 30.1551 21.2156Z" fill="#1C1C23" fill-opacity="0.3"/>
</svg>
