<svg width="23" height="22" viewBox="0 0 23 22" fill="none" xmlns="http://www.w3.org/2000/svg">
<path d="M11.43 0.00512695C8.44486 0.00512695 8.06946 0.0188769 6.89656 0.0711269C5.72371 0.126127 4.92484 0.310377 4.22496 0.582627C3.49084 0.858757 2.82589 1.29189 2.27659 1.85176C1.71706 2.40134 1.28398 3.06621 1.00746 3.80013C0.735212 4.49863 0.549592 5.29888 0.495962 6.46763C0.443712 7.64323 0.429962 8.01723 0.429962 11.0065C0.429962 13.993 0.443712 14.367 0.495962 15.5399C0.550962 16.7114 0.735212 17.5102 1.00746 18.2101C1.28934 18.9333 1.66471 19.5466 2.27659 20.1585C2.88709 20.7704 3.50034 21.1471 4.22359 21.4276C4.92484 21.6998 5.72234 21.8855 6.89386 21.9391C8.06806 21.9913 8.44206 22.0051 11.43 22.0051C14.4179 22.0051 14.7905 21.9913 15.9648 21.9391C17.1349 21.8841 17.9365 21.6998 18.6364 21.4276C19.37 21.1513 20.0345 20.7182 20.5834 20.1585C21.1953 19.5466 21.5706 18.9333 21.8525 18.2101C22.1234 17.5102 22.309 16.7114 22.364 15.5399C22.4162 14.367 22.43 13.993 22.43 11.0051C22.43 8.01723 22.4162 7.64323 22.364 6.46903C22.309 5.29888 22.1234 4.49863 21.8525 3.80013C21.576 3.06619 21.1429 2.40131 20.5834 1.85176C20.0342 1.29168 19.3692 0.858517 18.635 0.582627C17.9337 0.310377 17.1335 0.124757 15.9634 0.0711269C14.7891 0.0188769 14.4165 0.00512695 11.4273 0.00512695H11.4314H11.43ZM10.4441 1.98788H11.4314C14.3684 1.98788 14.7162 1.99751 15.8754 2.05113C16.9479 2.09926 17.5309 2.27938 17.9186 2.42926C18.4315 2.62863 18.7986 2.86788 19.1836 3.25288C19.5686 3.63788 19.8065 4.00363 20.0059 4.51788C20.1571 4.90426 20.3359 5.48726 20.384 6.55973C20.4376 7.71893 20.4486 8.06673 20.4486 11.0024C20.4486 13.938 20.4376 14.2872 20.384 15.4463C20.3359 16.5188 20.1558 17.1005 20.0059 17.4882C19.8295 17.9658 19.548 18.3977 19.1822 18.7519C18.7972 19.1369 18.4315 19.3747 17.9173 19.5741C17.5323 19.7254 16.9492 19.9041 15.8754 19.9536C14.7162 20.0059 14.3684 20.0182 11.4314 20.0182C8.49436 20.0182 8.14506 20.0059 6.98596 19.9536C5.91346 19.9041 5.33184 19.7254 4.94409 19.5741C4.46627 19.398 4.03401 19.117 3.67908 18.7519C3.31299 18.3971 3.03108 17.9649 2.85409 17.4868C2.70421 17.1005 2.52409 16.5175 2.47596 15.445C2.42371 14.2859 2.41271 13.938 2.41271 10.9996C2.41271 8.06263 2.42371 7.71613 2.47596 6.55703C2.52546 5.48451 2.70421 4.9015 2.85546 4.51375C3.05484 4.00088 3.29408 3.63376 3.67908 3.24876C4.06408 2.86376 4.42984 2.62588 4.94409 2.4265C5.33184 2.27525 5.91346 2.09651 6.98596 2.04701C8.00076 2.00026 8.39396 1.98651 10.4441 1.98513V1.98788ZM17.3026 3.81388C17.1293 3.81388 16.9576 3.84802 16.7975 3.91436C16.6373 3.9807 16.4918 4.07793 16.3692 4.2005C16.2467 4.32307 16.1494 4.46859 16.0831 4.62874C16.0168 4.78889 15.9826 4.96054 15.9826 5.13388C15.9826 5.30723 16.0168 5.47887 16.0831 5.63902C16.1494 5.79917 16.2467 5.94469 16.3692 6.06723C16.4918 6.18983 16.6373 6.28703 16.7975 6.35343C16.9576 6.41973 17.1293 6.45393 17.3026 6.45393C17.6527 6.45393 17.9885 6.31483 18.236 6.06723C18.4836 5.81971 18.6226 5.48397 18.6226 5.13388C18.6226 4.78379 18.4836 4.44805 18.236 4.2005C17.9885 3.95295 17.6527 3.81388 17.3026 3.81388ZM11.4314 5.35663C10.6821 5.34494 9.93796 5.48242 9.24226 5.76107C8.54666 6.03973 7.91346 6.45393 7.37946 6.97973C6.84546 7.50543 6.42134 8.13213 6.13187 8.82333C5.8424 9.51453 5.69332 10.2564 5.69332 11.0058C5.69332 11.7552 5.8424 12.497 6.13187 13.1882C6.42134 13.8794 6.84546 14.5062 7.37946 15.0319C7.91346 15.5576 8.54666 15.9719 9.24226 16.2505C9.93796 16.5292 10.6821 16.6667 11.4314 16.655C12.9144 16.6318 14.3288 16.0265 15.3693 14.9696C16.4099 13.9127 16.9931 12.489 16.9931 11.0058C16.9931 9.52263 16.4099 8.09893 15.3693 7.04203C14.3288 5.98512 12.9144 5.37977 11.4314 5.35663ZM11.4314 7.33803C12.404 7.33803 13.3367 7.72433 14.0244 8.41213C14.7121 9.09983 15.0985 10.0325 15.0985 11.0051C15.0985 11.9777 14.7121 12.9104 14.0244 13.5981C13.3367 14.2859 12.404 14.6722 11.4314 14.6722C10.4588 14.6722 9.52596 14.2859 8.83826 13.5981C8.15056 12.9104 7.76426 11.9777 7.76426 11.0051C7.76426 10.0325 8.15056 9.09983 8.83826 8.41213C9.52596 7.72433 10.4588 7.33803 11.4314 7.33803Z" fill="white"/>
</svg>
