<svg width="22" height="22" viewBox="0 0 22 22" fill="none" xmlns="http://www.w3.org/2000/svg">
<path d="M4.92755 3.13028C4.92725 3.72702 4.68991 4.29919 4.26774 4.72094C3.84557 5.14269 3.27316 5.37945 2.67642 5.37915C2.07969 5.37886 1.50751 5.14152 1.08576 4.71935C0.664021 4.29718 0.427252 3.72477 0.427552 3.12803C0.427852 2.53129 0.665182 1.95911 1.08735 1.53737C1.50952 1.11562 2.08194 0.878861 2.67867 0.879151C3.27541 0.879451 3.84759 1.11679 4.26933 1.53896C4.69108 1.96113 4.92785 2.53354 4.92755 3.13028ZM4.99505 7.04523H0.495052V21.1302H4.99505V7.04523ZM12.105 7.04523H7.62753V21.1302H12.06V13.739C12.06 9.62153 17.4263 9.23903 17.4263 13.739V21.1302H21.87V12.209C21.87 5.26778 13.9275 5.52653 12.06 8.93523L12.105 7.04523Z" fill="white"/>
</svg>
