<svg width="31" height="18" viewBox="0 0 31 18" fill="none" xmlns="http://www.w3.org/2000/svg">
<path d="M17.1218 9.00513C17.1218 13.6645 13.3343 17.4426 8.65989 17.4426C7.55038 17.4441 6.45145 17.227 5.42584 16.8038C4.40022 16.3806 3.46801 15.7595 2.68242 14.976C1.89684 14.1925 1.27327 13.2619 0.847316 12.2375C0.421362 11.213 0.201367 10.1146 0.19989 9.00513C0.19989 4.34393 3.98739 0.567637 8.65989 0.567637C9.76955 0.565917 10.8687 0.782797 11.8945 1.20592C12.9204 1.62903 13.8528 2.25008 14.6386 3.0336C15.4244 3.81712 16.0481 4.74773 16.4742 5.77233C16.9002 6.79693 17.1203 7.89543 17.1218 9.00513ZM26.403 9.00513C26.403 13.3926 24.5093 16.9476 22.173 16.9476C19.8368 16.9476 17.943 13.3907 17.943 9.00513C17.943 4.61763 19.8368 1.06264 22.173 1.06264C24.5093 1.06264 26.403 4.61953 26.403 9.00513ZM30.1999 9.00513C30.1999 12.9351 29.5343 16.1207 28.7112 16.1207C27.8899 16.1207 27.2243 12.9332 27.2243 9.00513C27.2243 5.07513 27.8899 1.88952 28.713 1.88952C29.5343 1.88952 30.1999 5.07513 30.1999 9.00513Z" fill="white"/>
</svg>
